<mxfile host="app.diagrams.net" modified="2024-07-08T10:35:07.629Z" agent="Mozilla/5.0 (Windows NT 10.0; Win64; x64) AppleWebKit/537.36 (KHTML, like Gecko) Chrome/126.0.0.0 Safari/537.36" version="24.6.4" etag="_Cezs-Lcy9Kzz5_0lhY_" type="github">
  <diagram name="第 1 页" id="b9ewnj4fbWfrQU1S3j9y">
    <mxGraphModel>
      <root>
        <mxCell id="0" />
        <mxCell id="1" parent="0" />
      </root>
    </mxGraphModel>
  </diagram>
</mxfile>
